<svg width="132" height="32" viewBox="0 0 132 32" fill="none" xmlns="http://www.w3.org/2000/svg">
<rect width="132" height="32" fill="white"/>
<path d="M44.984 21.52C43.8533 21.52 42.8293 21.2747 41.912 20.784C41.0053 20.2827 40.2907 19.5947 39.768 18.72C39.256 17.8453 39 16.8587 39 15.76C39 14.6613 39.2613 13.6747 39.784 12.8C40.3067 11.9253 41.0213 11.2427 41.928 10.752C42.8453 10.2507 43.8693 10 45 10C45.9173 10 46.7547 10.16 47.512 10.48C48.2693 10.8 48.9093 11.264 49.432 11.872L48.088 13.136C47.2773 12.2613 46.28 11.824 45.096 11.824C44.328 11.824 43.64 11.9947 43.032 12.336C42.424 12.6667 41.9493 13.1307 41.608 13.728C41.2667 14.3253 41.096 15.0027 41.096 15.76C41.096 16.5173 41.2667 17.1947 41.608 17.792C41.9493 18.3893 42.424 18.8587 43.032 19.2C43.64 19.5307 44.328 19.696 45.096 19.696C46.28 19.696 47.2773 19.2533 48.088 18.368L49.432 19.648C48.9093 20.256 48.264 20.72 47.496 21.04C46.7387 21.36 45.9013 21.52 44.984 21.52Z" fill="black"/>
<path d="M58.0226 21.52C56.8813 21.52 55.852 21.2747 54.9346 20.784C54.0173 20.2827 53.2973 19.5947 52.7746 18.72C52.252 17.8347 51.9906 16.848 51.9906 15.76C51.9906 14.672 52.252 13.6907 52.7746 12.816C53.2973 11.9307 54.0173 11.2427 54.9346 10.752C55.852 10.2507 56.8813 10 58.0226 10C59.164 10 60.1933 10.2507 61.1106 10.752C62.028 11.2427 62.748 11.9253 63.2706 12.8C63.7933 13.6747 64.0546 14.6613 64.0546 15.76C64.0546 16.8587 63.7933 17.8453 63.2706 18.72C62.748 19.5947 62.028 20.2827 61.1106 20.784C60.1933 21.2747 59.164 21.52 58.0226 21.52ZM58.0226 19.696C58.7693 19.696 59.4413 19.5307 60.0386 19.2C60.636 18.8587 61.1053 18.3893 61.4466 17.792C61.788 17.184 61.9586 16.5067 61.9586 15.76C61.9586 15.0133 61.788 14.3413 61.4466 13.744C61.1053 13.136 60.636 12.6667 60.0386 12.336C59.4413 11.9947 58.7693 11.824 58.0226 11.824C57.276 11.824 56.604 11.9947 56.0066 12.336C55.4093 12.6667 54.94 13.136 54.5986 13.744C54.2573 14.3413 54.0866 15.0133 54.0866 15.76C54.0866 16.5067 54.2573 17.184 54.5986 17.792C54.94 18.3893 55.4093 18.8587 56.0066 19.2C56.604 19.5307 57.276 19.696 58.0226 19.696Z" fill="black"/>
<path d="M78.1474 21.36L78.1314 13.936L74.4514 20.08H73.5234L69.8434 14.032V21.36H67.8594V10.16H69.5714L74.0194 17.584L78.3874 10.16H80.0994L80.1154 21.36H78.1474Z" fill="black"/>
<path d="M98.1275 15.632H100.096V20.096C99.5195 20.5547 98.8475 20.9067 98.0795 21.152C97.3115 21.3973 96.5222 21.52 95.7115 21.52C94.5702 21.52 93.5409 21.2747 92.6235 20.784C91.7062 20.2827 90.9862 19.5947 90.4636 18.72C89.9409 17.8453 89.6796 16.8587 89.6796 15.76C89.6796 14.6613 89.9409 13.6747 90.4636 12.8C90.9862 11.9253 91.7062 11.2427 92.6235 10.752C93.5515 10.2507 94.5915 10 95.7435 10C96.6822 10 97.5355 10.1547 98.3035 10.464C99.0715 10.7733 99.7168 11.2267 100.24 11.824L98.9275 13.104C98.0742 12.2507 97.0448 11.824 95.8395 11.824C95.0502 11.824 94.3462 11.9893 93.7275 12.32C93.1195 12.6507 92.6395 13.1147 92.2875 13.712C91.9462 14.3093 91.7755 14.992 91.7755 15.76C91.7755 16.5067 91.9462 17.1787 92.2875 17.776C92.6395 18.3733 93.1195 18.8427 93.7275 19.184C94.3462 19.5253 95.0448 19.696 95.8235 19.696C96.6982 19.696 97.4662 19.504 98.1275 19.12V15.632Z" fill="black"/>
<path d="M114.391 10.16V21.36H112.679L106.503 13.776V21.36H104.439V10.16H106.151L112.327 17.744V10.16H114.391Z" fill="black"/>
<path d="M118.992 10.16H123.888C125.083 10.16 126.144 10.3947 127.072 10.864C128 11.3227 128.72 11.9787 129.232 12.832C129.744 13.6747 130 14.6507 130 15.76C130 16.8693 129.744 17.8507 129.232 18.704C128.72 19.5467 128 20.2027 127.072 20.672C126.144 21.1307 125.083 21.36 123.888 21.36H118.992V10.16ZM123.792 19.6C124.613 19.6 125.333 19.4453 125.952 19.136C126.581 18.816 127.061 18.368 127.392 17.792C127.733 17.2053 127.904 16.528 127.904 15.76C127.904 14.992 127.733 14.32 127.392 13.744C127.061 13.1573 126.581 12.7093 125.952 12.4C125.333 12.08 124.613 11.92 123.792 11.92H121.072V19.6H123.792Z" fill="black"/>
<path d="M14 23H18V25H14V23Z" fill="black"/>
<path d="M10 19H22V21H10V19Z" fill="black"/>
<path d="M7 15H25V17H7V15Z" fill="black"/>
<path d="M15 7H17V15H15V7Z" fill="black"/>
<path fill-rule="evenodd" clip-rule="evenodd" d="M30 16C30 23.732 23.732 30 16 30C8.26801 30 2 23.732 2 16C2 8.26801 8.26801 2 16 2C23.732 2 30 8.26801 30 16ZM16 28C22.6274 28 28 22.6274 28 16C28 9.37258 22.6274 4 16 4C9.37258 4 4 9.37258 4 16C4 22.6274 9.37258 28 16 28Z" fill="black"/>
</svg>
