<svg width="96" height="32" viewBox="0 0 96 32" fill="none" xmlns="http://www.w3.org/2000/svg">
<g clip-path="url(#clip0)">
<rect width="96" height="32" fill="white"/>
<path d="M8.984 21.52C7.85333 21.52 6.82933 21.2747 5.912 20.784C5.00533 20.2827 4.29067 19.5947 3.768 18.72C3.256 17.8453 3 16.8587 3 15.76C3 14.6613 3.26133 13.6747 3.784 12.8C4.30667 11.9253 5.02133 11.2427 5.928 10.752C6.84533 10.2507 7.86933 10 9 10C9.91733 10 10.7547 10.16 11.512 10.48C12.2693 10.8 12.9093 11.264 13.432 11.872L12.088 13.136C11.2773 12.2613 10.28 11.824 9.096 11.824C8.328 11.824 7.64 11.9947 7.032 12.336C6.424 12.6667 5.94933 13.1307 5.608 13.728C5.26667 14.3253 5.096 15.0027 5.096 15.76C5.096 16.5173 5.26667 17.1947 5.608 17.792C5.94933 18.3893 6.424 18.8587 7.032 19.2C7.64 19.5307 8.328 19.696 9.096 19.696C10.28 19.696 11.2773 19.2533 12.088 18.368L13.432 19.648C12.9093 20.256 12.264 20.72 11.496 21.04C10.7387 21.36 9.90133 21.52 8.984 21.52Z" fill="black"/>
<path d="M22.0226 21.52C20.8813 21.52 19.852 21.2747 18.9346 20.784C18.0173 20.2827 17.2973 19.5947 16.7746 18.72C16.252 17.8347 15.9906 16.848 15.9906 15.76C15.9906 14.672 16.252 13.6907 16.7746 12.816C17.2973 11.9307 18.0173 11.2427 18.9346 10.752C19.852 10.2507 20.8813 10 22.0226 10C23.164 10 24.1933 10.2507 25.1106 10.752C26.028 11.2427 26.748 11.9253 27.2706 12.8C27.7933 13.6747 28.0546 14.6613 28.0546 15.76C28.0546 16.8587 27.7933 17.8453 27.2706 18.72C26.748 19.5947 26.028 20.2827 25.1106 20.784C24.1933 21.2747 23.164 21.52 22.0226 21.52ZM22.0226 19.696C22.7693 19.696 23.4413 19.5307 24.0386 19.2C24.636 18.8587 25.1053 18.3893 25.4466 17.792C25.788 17.184 25.9586 16.5067 25.9586 15.76C25.9586 15.0133 25.788 14.3413 25.4466 13.744C25.1053 13.136 24.636 12.6667 24.0386 12.336C23.4413 11.9947 22.7693 11.824 22.0226 11.824C21.276 11.824 20.604 11.9947 20.0066 12.336C19.4093 12.6667 18.94 13.136 18.5986 13.744C18.2573 14.3413 18.0866 15.0133 18.0866 15.76C18.0866 16.5067 18.2573 17.184 18.5986 17.792C18.94 18.3893 19.4093 18.8587 20.0066 19.2C20.604 19.5307 21.276 19.696 22.0226 19.696Z" fill="black"/>
<path d="M42.1474 21.36L42.1314 13.936L38.4514 20.08H37.5234L33.8434 14.032V21.36H31.8594V10.16H33.5714L38.0194 17.584L42.3874 10.16H44.0994L44.1154 21.36H42.1474Z" fill="black"/>
<path d="M62.1275 15.632H64.0955V20.096C63.5195 20.5547 62.8475 20.9067 62.0795 21.152C61.3115 21.3973 60.5222 21.52 59.7115 21.52C58.5702 21.52 57.5409 21.2747 56.6235 20.784C55.7062 20.2827 54.9862 19.5947 54.4636 18.72C53.9409 17.8453 53.6796 16.8587 53.6796 15.76C53.6796 14.6613 53.9409 13.6747 54.4636 12.8C54.9862 11.9253 55.7062 11.2427 56.6235 10.752C57.5515 10.2507 58.5915 10 59.7435 10C60.6822 10 61.5355 10.1547 62.3035 10.464C63.0715 10.7733 63.7168 11.2267 64.2395 11.824L62.9275 13.104C62.0742 12.2507 61.0448 11.824 59.8395 11.824C59.0502 11.824 58.3462 11.9893 57.7275 12.32C57.1195 12.6507 56.6395 13.1147 56.2875 13.712C55.9462 14.3093 55.7755 14.992 55.7755 15.76C55.7755 16.5067 55.9462 17.1787 56.2875 17.776C56.6395 18.3733 57.1195 18.8427 57.7275 19.184C58.3462 19.5253 59.0448 19.696 59.8235 19.696C60.6982 19.696 61.4662 19.504 62.1275 19.12V15.632Z" fill="black"/>
<path d="M78.3909 10.16V21.36H76.6789L70.5029 13.776V21.36H68.4389V10.16H70.1509L76.3269 17.744V10.16H78.3909Z" fill="black"/>
<path d="M82.992 10.16H87.888C89.0827 10.16 90.144 10.3947 91.072 10.864C92 11.3227 92.72 11.9787 93.232 12.832C93.744 13.6747 94 14.6507 94 15.76C94 16.8693 93.744 17.8507 93.232 18.704C92.72 19.5467 92 20.2027 91.072 20.672C90.144 21.1307 89.0827 21.36 87.888 21.36H82.992V10.16ZM87.792 19.6C88.6133 19.6 89.3333 19.4453 89.952 19.136C90.5813 18.816 91.0613 18.368 91.392 17.792C91.7333 17.2053 91.904 16.528 91.904 15.76C91.904 14.992 91.7333 14.32 91.392 13.744C91.0613 13.1573 90.5813 12.7093 89.952 12.4C89.3333 12.08 88.6133 11.92 87.792 11.92H85.072V19.6H87.792Z" fill="black"/>
</g>
<defs>
<clipPath id="clip0">
<rect width="96" height="32" fill="white"/>
</clipPath>
</defs>
</svg>
